<svg fill="none" height="128" viewBox="0 0 128 128" width="128" xmlns="http://www.w3.org/2000/svg"><path d="m100.437 31.2931c-5.3131-3.63-11.612-5.5945-18.0824-5.5945-17.6541 0-31.9231 14.2639-31.9231 31.8161 0 3.2883.5142 6.5767 1.5426 9.6943l3.8564-2.8186c-.557-2.2208-.8998-4.5269-.8998-6.9184 0-15.0753 12.2979-27.332 27.4239-27.332 15.1261 0 27.4244 12.2567 27.4244 27.332 0 15.0752-12.2983 27.3319-27.4244 27.3319-5.1848 0-10.0268-1.452-14.1833-3.929l-3.8993 2.8186c14.5261 9.9506 34.4085 6.2778 44.392-8.1995 9.985-14.4347 6.299-34.2504-8.227-44.2009z" fill="#dc223e"/><path d="m60.5868 65.3724-24.8529 18.0216-10.841-14.8614c-.1286-.1708-.3857-.2135-.5999-.0854l-10.4126 7.5161c-.1714.1281-.2142.3844-.0857.5979l18.6398 25.5808c.1285.17.3856.213.5999.085l35.8225-25.9647c-3.7708-2.6905-6.6846-6.4912-8.2701-10.8899z" fill="#142637"/><path d="m82.3545 34.4551c-12.7693 0-23.139 10.3347-23.139 23.061 0 12.7262 10.3697 23.0609 23.139 23.0609 12.7692 0 23.1385-10.3347 23.1385-23.0609 0-12.7263-10.3693-23.061-23.1385-23.061zm12.1693 20.4559c-3.0852 2.2207-7.3701 1.5374-9.5555-1.5374-2.2282-3.0748-1.5426-7.3453 1.5426-9.5233 3.0852-2.2207 7.3702-1.5374 9.5555 1.4947 2.1854 3.1175 1.4998 7.388-1.5426 9.566z" fill="#dc223e"/></svg>